<?xml version="1.0" encoding="us-ascii" standalone="no"?><svg xmlns="http://www.w3.org/2000/svg" xmlns:xlink="http://www.w3.org/1999/xlink" contentStyleType="text/css" height="491px" preserveAspectRatio="none" style="width:264px;height:491px;" version="1.1" viewBox="0 0 264 491" width="264px" zoomAndPan="magnify"><defs/><g><!--class Empleado--><g id="elem_Empleado"><rect codeLine="3" fill="#D3D3D3" height="108.7969" id="Empleado" rx="2.5" ry="2.5" style="stroke:#000000;stroke-width:0.5;" width="82" x="73" y="128"/><text fill="#000000" font-family="sans-serif" font-size="13" font-weight="bold" lengthAdjust="spacing" textLength="74" x="77" y="145.0669">Empleado</text><line style="stroke:#000000;stroke-width:0.5;" x1="74" x2="154" y1="153.1328" y2="153.1328"/><text fill="#000000" font-family="sans-serif" font-size="13" lengthAdjust="spacing" textLength="50" x="79" y="169.1997">nombre</text><text fill="#000000" font-family="sans-serif" font-size="13" lengthAdjust="spacing" textLength="42" x="79" y="184.3325">salario</text><text fill="#000000" font-family="sans-serif" font-size="13" lengthAdjust="spacing" textLength="70" x="79" y="199.4653">fechaInicial</text><text fill="#000000" font-family="sans-serif" font-size="13" lengthAdjust="spacing" textLength="64" x="79" y="214.5981">fechaFinal</text><text fill="#000000" font-family="sans-serif" font-size="13" lengthAdjust="spacing" textLength="57" x="79" y="229.731">comision</text></g><!--class Departamento--><g id="elem_Departamento"><rect codeLine="11" fill="#D3D3D3" height="63.3984" id="Departamento" rx="2.5" ry="2.5" style="stroke:#000000;stroke-width:0.5;" width="113" x="57.5" y="312"/><text fill="#000000" font-family="sans-serif" font-size="13" font-weight="bold" lengthAdjust="spacing" textLength="107" x="60.5" y="329.0669">Departamento</text><line style="stroke:#000000;stroke-width:0.5;" x1="58.5" x2="169.5" y1="337.1328" y2="337.1328"/><text fill="#000000" font-family="sans-serif" font-size="13" lengthAdjust="spacing" textLength="76" x="63.5" y="353.1997">nombreDep</text><text fill="#000000" font-family="sans-serif" font-size="13" lengthAdjust="spacing" textLength="56" x="63.5" y="368.3325">localidad</text></g><g id="elem_GMN6"><path d="M37.5,436 L37.5,484.4141 L190.5,484.4141 L190.5,446 L180.5,436 L37.5,436 " fill="#FFD700" style="stroke:#000000;stroke-width:0.5;"/><path d="M180.5,436 L180.5,446 L190.5,446 L180.5,436 " fill="#FFD700" style="stroke:#000000;stroke-width:1.0;"/><text fill="#000000" font-family="sans-serif" font-size="11" lengthAdjust="spacing" textLength="88" x="43.5" y="451.2104">La combinaci&#243;n</text><text fill="#000000" font-family="sans-serif" font-size="11" lengthAdjust="spacing" textLength="132" x="43.5" y="464.0151">(nombreDep, localidad)</text><text fill="#000000" font-family="sans-serif" font-size="11" lengthAdjust="spacing" textLength="113" x="43.5" y="476.8198">no se puede repetir</text></g><g id="elem_GMN9"><path d="M6,6 L6,67.2188 L222,67.2188 L222,16 L212,6 L6,6 " fill="#FFD700" style="stroke:#000000;stroke-width:0.5;"/><path d="M212,6 L212,16 L222,16 L212,6 " fill="#FFD700" style="stroke:#000000;stroke-width:1.0;"/><text fill="#000000" font-family="sans-serif" font-size="11" lengthAdjust="spacing" textLength="161" x="12" y="21.2104">La fecha incial no puede ser</text><text fill="#000000" font-family="sans-serif" font-size="11" lengthAdjust="spacing" textLength="159" x="12" y="34.0151">superiror que la fecha final.</text><text fill="#000000" font-family="sans-serif" font-size="11" lengthAdjust="spacing" textLength="195" x="12" y="46.8198">El nombre del empleado es &#250;nico.</text><text fill="#000000" font-family="sans-serif" font-size="11" lengthAdjust="spacing" textLength="138" x="12" y="59.6245">La comisi&#243;n entre 0 y 1.</text></g><!--link Empleado to Departamento--><g id="link_Empleado_Departamento"><path codeLine="16" d="M114,237.33 C114,262.2 114,284.81 114,305.91 " fill="none" id="Empleado-to-Departamento" style="stroke:#000000;stroke-width:1.0;"/><polygon fill="#000000" points="114,311.91,118,302.91,114,306.91,110,302.91,114,311.91" style="stroke:#000000;stroke-width:1.0;"/><text fill="#000000" font-family="sans-serif" font-size="12" lengthAdjust="spacing" textLength="61" x="115" y="279.1387">trabajaEn</text><text fill="#000000" font-family="sans-serif" font-size="12" lengthAdjust="spacing" textLength="6" x="107.6344" y="256.0147">*</text><text fill="#000000" font-family="sans-serif" font-size="12" lengthAdjust="spacing" textLength="24" x="87.225" y="301.3063">0..1</text></g><!--link Empleado to Empleado--><g id="link_Empleado_Empleado"><path codeLine="17" d="M155.05,167.03 C173.75,165.45 190,170.61 190,182.5 C190,194.39 179.7287,200.0552 161.0287,198.4752 " fill="none" id="Empleado-to-Empleado" style="stroke:#000000;stroke-width:1.0;"/><polygon fill="#000000" points="155.05,197.97,163.6813,202.7135,160.0322,198.391,164.3548,194.7419,155.05,197.97" style="stroke:#000000;stroke-width:1.0;"/><text fill="#000000" font-family="sans-serif" font-size="12" lengthAdjust="spacing" textLength="55" x="196" y="187.1387">esJefeDe</text><text fill="#000000" font-family="sans-serif" font-size="12" lengthAdjust="spacing" textLength="24" x="162.8417" y="162.0279">0..1</text><text fill="#000000" font-family="sans-serif" font-size="12" lengthAdjust="spacing" textLength="6" x="162.8964" y="197.8108">*</text></g><!--link Departamento to GMN6--><g id="link_Departamento_GMN6"><path d="M114,375.18 C114,394.26 114,418.4 114,435.86 " fill="none" id="Departamento-GMN6" style="stroke:#000000;stroke-width:1.0;stroke-dasharray:7.0,7.0;"/></g><!--link GMN9 to Empleado--><g id="link_GMN9_Empleado"><path d="M114,67.34 C114,84.8 114,107.38 114,127.83 " fill="none" id="GMN9-Empleado" style="stroke:#000000;stroke-width:1.0;stroke-dasharray:7.0,7.0;"/></g><!--SRC=[LL71JiCm3BtdAqnFW5YsNNVWj2A1-0atTKLG4eSaFI34Lt7ZkX_3QTUoIJaurlDxpyytDXWtzWHQR-N5qRljO0CwRQLKoZZC6LeV7M7FyAK00likaHGP7IRBKWratl0vM6FHBT-doY8Vmzvcoq5zBsn7YfWAUWhbab7QKZisw6oFVSMlkirz0vlD8pGxhVVDDSC1Ii8Etx4D5mCpS9gHsRL_0CelD8YOKe4BGSUbi0SUhaZ5o2jMwvriOUpf9qZdTlNvy6_pRl8FcI2E93acYbHiKXHwg09dcSAnQYm-Pluf9v0BI6oLP6R8bA2cEqPADd62Zv70BUZvE1NGkdDmq9C3MZQa3ATVEGNhTGd9NpO0MKp0E_Y4lLxz_G40]--></g></svg>